# xmcd
#
# Track frame offsets: 
#        150
#        13086
#        26324
#        40344
#        53496
#        67413
#        81562
#        95594
#        109887
#        123122
#        135984
#        151425
#        164928
#        177492
#        191046
#        204927
#        219309
#        235946
#        249958
#        262276
#        275775
#        290478
#        305685
#
# Disc length: 4275 seconds
#
# Revision: 2
# Processed by: cddbd v1.5.2PL0 Copyright (c) Steve Scherf et al.
# Submitted via: ExactAudioCopyFreeDBPlugin 1.0
#
DISCID=5f10b117
DTITLE=Sara Martin - In Chronological Order Vol. 2 (1923-1924)
DYEAR=1995
DGENRE=Blues
TTITLE0=Ye Shall Reap Just What You Sow
TTITLE1=New Orleans Hop Scop Blues
TTITLE2=Uncle Sam Blues
TTITLE3=Sweet Man Was the Cause of It All
TTITLE4=Symphathizing Blues
TTITLE5=Mistrated Mama Blues
TTITLE6=Runnin' 'Round with the Blues
TTITLE7=Blind Man Blues
TTITLE8=Aatlanta Blues
TTITLE9=My Good Man's Blues
TTITLE10=Jelly's Blues
TTITLE11=Troubled Blues
TTITLE12=I'm Satisfied
TTITLE13=Blue Gum Blues
TTITLE14=Slow Down Sweet Papa Mama's Catching Up with You
TTITLE15=Graveyard Dream Blues
TTITLE16=A Green Gal Can't Catch On (Blues)
TTITLE17=Longing for Daddy Blues
TTITLE18=I've Got to Go and Leave My Daddy Behind
TTITLE19=Roamin' Blues
TTITLE20=Good-Bye Blues
TTITLE21=Everybody's Got the Blues
TTITLE22=My Man Blues
EXTD=
EXTT0=
EXTT1=
EXTT2=
EXTT3=
EXTT4=
EXTT5=
EXTT6=
EXTT7=
EXTT8=
EXTT9=
EXTT10=
EXTT11=
EXTT12=
EXTT13=
EXTT14=
EXTT15=
EXTT16=
EXTT17=
EXTT18=
EXTT19=
EXTT20=
EXTT21=
EXTT22=
PLAYORDER=
